<svg xmlns="http://www.w3.org/2000/svg" width="59" height="29.749" viewBox="0 0 59 29.749"><defs><style>.a{fill:#fff;stroke:#fff;stroke-width:2px;}</style></defs><g transform="translate(1 -84.258)"><g transform="translate(0 85.333)"><path class="a" d="M56.652,98.558,38.84,85.586a1.518,1.518,0,0,0-1.679,0,.711.711,0,0,0,0,1.223l15.785,11.5H1.188c-.656,0-1.188.387-1.188.865s.531.865,1.188.865H52.946l-15.785,11.5a.711.711,0,0,0,0,1.223,1.518,1.518,0,0,0,1.679,0L56.652,99.781A.711.711,0,0,0,56.652,98.558Z" transform="translate(0 -85.333)"/></g></g></svg>