<svg id="data" xmlns="http://www.w3.org/2000/svg" width="79.765" height="79.68" viewBox="0 0 79.765 79.68">
  <path id="Path_3" data-name="Path 3" d="M37.538,137.194a1.244,1.244,0,0,0,1.759-1.759l-3.021-3.021,3.021-3.02a1.244,1.244,0,1,0-1.759-1.759l-3.9,3.9a1.244,1.244,0,0,0,0,1.759Zm0,0" transform="translate(-27.749 -107.699)" fill="#ef4a23"/>
  <path id="Path_4" data-name="Path 4" d="M116.316,132.411l-3.021,3.021a1.244,1.244,0,1,0,1.759,1.759l3.9-3.9a1.243,1.243,0,0,0,0-1.759l-3.9-3.9a1.244,1.244,0,0,0-1.759,1.759Zm0,0" transform="translate(-95.431 -107.696)" fill="#ef4a23"/>
  <path id="Path_5" data-name="Path 5" d="M77.207,137.468a1.244,1.244,0,0,0,1.613-.7l3.064-7.8a1.244,1.244,0,1,0-2.315-.91l-3.065,7.8A1.244,1.244,0,0,0,77.207,137.468Zm0,0" transform="translate(-63.731 -107.695)" fill="#ef4a23"/>
  <path id="Path_6" data-name="Path 6" d="M38.759,220.7h8.38a1.244,1.244,0,0,0,0-2.488H38.759a1.244,1.244,0,0,0,0,2.488Zm0,0" transform="translate(-31.287 -184.363)" fill="#ef4a23"/>
  <path id="Path_7" data-name="Path 7" d="M131.489,218.215H116.756a1.244,1.244,0,0,0,0,2.488h14.734a1.244,1.244,0,1,0,0-2.488Zm0,0" transform="translate(-97.816 -184.364)" fill="#ef4a23"/>
  <path id="Path_8" data-name="Path 8" d="M38.759,252.309h3.57a1.244,1.244,0,0,0,0-2.488h-3.57a1.244,1.244,0,0,0,0,2.488Zm0,0" transform="translate(-31.287 -211.055)" fill="#ef4a23"/>
  <path id="Path_9" data-name="Path 9" d="M178.092,249.82a1.244,1.244,0,0,0,0,2.488h2.174a1.244,1.244,0,1,0,0-2.488Zm0,0" transform="translate(-149.401 -211.055)" fill="#ef4a23"/>
  <path id="Path_10" data-name="Path 10" d="M98.478,251.065a1.244,1.244,0,0,0-1.244-1.244H86.556a1.244,1.244,0,0,0,0,2.488H97.234A1.244,1.244,0,0,0,98.478,251.065Zm0,0" transform="translate(-72.181 -211.055)" fill="#ef4a23"/>
  <path id="Path_11" data-name="Path 11" d="M213.7,251.065a1.244,1.244,0,0,0,1.244,1.244h4.072a1.244,1.244,0,1,0,0-2.488h-4.072A1.244,1.244,0,0,0,213.7,251.065Zm0,0" transform="translate(-180.592 -211.055)" fill="#ef4a23"/>
  <path id="Path_12" data-name="Path 12" d="M166.643,151.766h4.295a1.244,1.244,0,1,0,0-2.488h-4.295a1.244,1.244,0,1,0,0,2.488Zm0,0" transform="translate(-139.778 -126.145)" fill="#ef4a23"/>
  <path id="Path_13" data-name="Path 13" d="M221.49,151.766H247.7a1.244,1.244,0,0,0,0-2.488H221.49a1.244,1.244,0,1,0,0,2.488Zm0,0" transform="translate(-187.08 -126.145)" fill="#ef4a23"/>
  <path id="Path_14" data-name="Path 14" d="M302.043,182.246H291.427a1.244,1.244,0,0,0,0,2.488h10.616a1.244,1.244,0,0,0,0-2.488Zm0,0" transform="translate(-245.515 -153.987)" fill="#ef4a23"/>
  <path id="Path_15" data-name="Path 15" d="M249.119,182.246H245.47a1.244,1.244,0,0,0,0,2.488h3.649a1.244,1.244,0,0,0,0-2.488Zm0,0" transform="translate(-206.372 -153.987)" fill="#ef4a23"/>
  <path id="Path_16" data-name="Path 16" d="M166.643,184.734h8.939a1.244,1.244,0,0,0,0-2.488h-8.939a1.244,1.244,0,1,0,0,2.488Zm0,0" transform="translate(-139.893 -153.987)" fill="#ef4a23"/>
  <path id="Path_17" data-name="Path 17" d="M108.871,281.16h-8.38a1.244,1.244,0,1,0,0,2.488h8.38a1.244,1.244,0,0,0,0-2.488Zm0,0" transform="translate(-83.933 -237.522)" fill="#ef4a23"/>
  <path id="Path_18" data-name="Path 18" d="M45.2,281.16H38.759a1.244,1.244,0,0,0,0,2.488H45.2a1.244,1.244,0,0,0,0-2.488Zm0,0" transform="translate(-31.287 -237.522)" fill="#ef4a23"/>
  <path id="Path_19" data-name="Path 19" d="M187.48,281.16H176.533a1.244,1.244,0,0,0,0,2.488H187.48a1.244,1.244,0,1,0,0-2.488Zm0,0" transform="translate(-148.317 -237.522)" fill="#ef4a23"/>
  <path id="Path_20" data-name="Path 20" d="M301.577,242.668h-5.986a1.244,1.244,0,0,0,0,2.488h5.986a1.244,1.244,0,0,0,0-2.488Zm0,0" transform="translate(-248.823 -205.015)" fill="#ef4a23"/>
  <path id="Path_21" data-name="Path 21" d="M394.221,245.156h8.451a1.244,1.244,0,1,0,0-2.488h-8.451a1.244,1.244,0,0,0,0,2.488Zm0,0" transform="translate(-332.97 -205.014)" fill="#ef4a23"/>
  <path id="Path_22" data-name="Path 22" d="M359.037,242.668H357.1a1.244,1.244,0,1,0,0,2.488h1.936a1.244,1.244,0,0,0,0-2.488Zm0,0" transform="translate(-300.616 -205.015)" fill="#ef4a23"/>
  <path id="Path_23" data-name="Path 23" d="M295.592,326.816h5.986a1.244,1.244,0,1,0,0-2.488h-5.986a1.244,1.244,0,1,0,0,2.488Zm0,0" transform="translate(-248.824 -273.978)" fill="#ef4a23"/>
  <path id="Path_24" data-name="Path 24" d="M394.221,326.816h8.451a1.244,1.244,0,1,0,0-2.488h-8.451a1.244,1.244,0,1,0,0,2.488Zm0,0" transform="translate(-332.97 -273.978)" fill="#ef4a23"/>
  <path id="Path_25" data-name="Path 25" d="M357.1,326.816h1.936a1.244,1.244,0,1,0,0-2.488H357.1a1.244,1.244,0,1,0,0,2.488Zm0,0" transform="translate(-300.619 -273.978)" fill="#ef4a23"/>
  <path id="Path_26" data-name="Path 26" d="M301.577,405.988h-5.986a1.244,1.244,0,1,0,0,2.488h5.986a1.244,1.244,0,1,0,0-2.488Zm0,0" transform="translate(-248.823 -342.941)" fill="#ef4a23"/>
  <path id="Path_27" data-name="Path 27" d="M402.671,405.988H394.22a1.244,1.244,0,1,0,0,2.488h8.451a1.244,1.244,0,1,0,0-2.488Zm0,0" transform="translate(-332.97 -342.941)" fill="#ef4a23"/>
  <path id="Path_28" data-name="Path 28" d="M359.037,405.988H357.1a1.244,1.244,0,1,0,0,2.488h1.936a1.244,1.244,0,1,0,0-2.488Zm0,0" transform="translate(-300.616 -342.941)" fill="#ef4a23"/>
  <path id="Path_29" data-name="Path 29" d="M74.628.5H5.138A5.144,5.144,0,0,0,0,5.638V62.123a5.144,5.144,0,0,0,5.138,5.138H9.531a1.167,1.167,0,1,0,0-2.334H5.138a2.806,2.806,0,0,1-2.8-2.8V57.695H44.865v2.012H43.94a2.3,2.3,0,0,0-2.3,2.3v2.924H16.629a1.167,1.167,0,1,0,0,2.334H27.853v4.187H24.328a4.269,4.269,0,0,0-4.264,4.264v2.522a1.948,1.948,0,0,0,1.946,1.946H57.667a1.948,1.948,0,0,0,1.946-1.946V75.712a4.269,4.269,0,0,0-4.264-4.264H51.823V69.972H73.4a2.3,2.3,0,0,0,2.3-2.3v-.55a5.145,5.145,0,0,0,3.976-5l.088-56.486A5.142,5.142,0,0,0,74.628.5ZM43.979,54.915v-5.6H73.366v5.6ZM47.2,46.985V44.528H70.144v2.456ZM70.144,57.25v2.457H47.2V57.25ZM30.187,67.261H41.644v.416a2.3,2.3,0,0,0,2.3,2.3h5.549v1.476h-19.3Zm25.161,6.522a1.931,1.931,0,0,1,1.929,1.929v2.133H22.4V75.712a1.932,1.932,0,0,1,1.93-1.929Zm18.017-6.146H43.979v-5.6H73.366Zm3.976-5.514A2.8,2.8,0,0,1,75.7,64.671V62a2.3,2.3,0,0,0-2.3-2.3h-.926V57.695h4.863Zm0-6.763h-1.68c.024-.132.038-6.08.038-6.08a2.3,2.3,0,0,0-2.3-2.3h-.926V44.528H73.4a2.3,2.3,0,0,0,2.3-2.3V36.559a2.3,2.3,0,0,0-2.3-2.3H66.811a1.168,1.168,0,0,0,0,2.335h6.555v5.6H43.979V36.6H59.547a1.168,1.168,0,0,0,0-2.335H43.94a2.3,2.3,0,0,0-2.3,2.3v5.674a2.3,2.3,0,0,0,2.3,2.3h.926v2.456H43.94a2.3,2.3,0,0,0-2.3,2.3s.015,5.948.038,6.08H2.334V16.38H77.342Zm0-41.316H2.42V5.637a2.806,2.806,0,0,1,2.8-2.8H74.539a2.806,2.806,0,0,1,2.8,2.8Zm0,0" transform="translate(0 -0.5)" fill="#ef4a23"/>
  <path id="Path_30" data-name="Path 30" d="M36.924,29.262a3.651,3.651,0,1,0,3.651,3.65A3.654,3.654,0,0,0,36.924,29.262Zm0,4.813a1.163,1.163,0,1,1,1.163-1.163A1.164,1.164,0,0,1,36.924,34.075Zm0,0" transform="translate(-27.749 -24.487)" fill="#ef4a23"/>
  <path id="Path_31" data-name="Path 31" d="M92.909,29.262a3.651,3.651,0,1,0,3.65,3.65A3.655,3.655,0,0,0,92.909,29.262Zm0,4.813a1.163,1.163,0,1,1,1.163-1.163A1.164,1.164,0,0,1,92.909,34.075Zm0,0" transform="translate(-75.438 -24.487)" fill="#ef4a23"/>
  <path id="Path_32" data-name="Path 32" d="M148.9,29.262a3.651,3.651,0,1,0,3.651,3.65A3.654,3.654,0,0,0,148.9,29.262Zm0,4.813a1.163,1.163,0,1,1,1.163-1.163A1.164,1.164,0,0,1,148.9,34.075Zm0,0" transform="translate(-122.757 -24.487)" fill="#ef4a23"/>
</svg>
