<svg id="mouse-clicker" xmlns="http://www.w3.org/2000/svg" width="18.188" height="30.916" viewBox="0 0 18.188 30.916">
  <path id="Path_997" data-name="Path 997" d="M9.094,0A9.1,9.1,0,0,0,0,9.094V21.822a9.094,9.094,0,0,0,18.188,0V9.094A9.1,9.1,0,0,0,9.094,0Zm7.239,21.822a7.239,7.239,0,0,1-14.478,0V9.094a7.239,7.239,0,1,1,14.478,0Zm0,0" fill="#fff"/>
  <path id="Path_998" data-name="Path 998" d="M136.173,101.852a.927.927,0,0,0-.927.927v4.269a.927.927,0,0,0,1.855,0v-4.269A.927.927,0,0,0,136.173,101.852Zm0,0" transform="translate(-127.079 -95.702)" fill="#fff"/>
</svg>
