<svg id="paint-brush" xmlns="http://www.w3.org/2000/svg" width="80" height="79.829" viewBox="0 0 80 79.829">
  <g id="Group_27" data-name="Group 27">
    <path id="Path_83" data-name="Path 83" d="M39.932,49.861l.016-.016L78.892,7.536A4.163,4.163,0,0,0,73.01,1.652L44.376,28.008a1.171,1.171,0,0,0,1.586,1.723L74.6,3.375a1.821,1.821,0,0,1,2.573,2.574L39.052,47.361l-.995-.995-4.873-4.873,8.738-8.043a1.171,1.171,0,1,0-1.586-1.723L30.7,40.6l-.017.017-.018.016L19.554,51.741a12.543,12.543,0,0,0-9.038,1.281A13.417,13.417,0,0,0,3.889,61.4a20.862,20.862,0,0,0-.489,5.24c0,.244,0,.488-.007.732A9.477,9.477,0,0,1,2.417,72.1a6.881,6.881,0,0,1-.805,1.058c-.846.987-2,2.34-1.485,4.167.7,2.452,3.192,3.044,5.639,3.044h.085c.023,0,21.039,0,21.039,0a1.171,1.171,0,0,0,0-2.342H17.663a25.082,25.082,0,0,0,5.41-3.039,16.092,16.092,0,0,0,2.347-2.1,14.884,14.884,0,0,0,3.242-5.617h9.091a1.679,1.679,0,0,1,1.677,1.677,4.024,4.024,0,0,0,4.02,4.02h3.671a2.527,2.527,0,1,1,0,5.054h-14.8a1.171,1.171,0,0,0,0,2.342h14.8a4.869,4.869,0,0,0,0-9.738H43.45a1.679,1.679,0,0,1-1.677-1.677,4.024,4.024,0,0,0-4.02-4.02H29.139a11.847,11.847,0,0,0-.258-4.026L39.915,49.88c.007-.006.012-.013.018-.019ZM23.68,71.332a13.775,13.775,0,0,1-2.005,1.784,22.651,22.651,0,0,1-5.523,2.989,31.105,31.105,0,0,1-5.1,1.319,30.347,30.347,0,0,1-5.454.607c-1.047-.011-2.865-.089-3.221-1.345-.157-.555.205-1.059,1.011-2a8.613,8.613,0,0,0,1.088-1.47,13.583,13.583,0,0,0,1.264-6.561,18.812,18.812,0,0,1,.412-4.661,11.126,11.126,0,0,1,5.509-6.931,10.254,10.254,0,0,1,13.956,3.9C27.8,62.843,27.058,67.581,23.68,71.332ZM28,58.478c-.108-.222-.22-.442-.343-.66a12.515,12.515,0,0,0-5.648-5.225l9.479-9.479,5.938,5.937Z" transform="translate(0.002 -0.547)" fill="#ef4a23"/>
  </g>
</svg>
