<svg xmlns="http://www.w3.org/2000/svg" width="79" height="79.283" viewBox="0 0 79 79.283">
  <g id="rocket-ship" transform="translate(-0.707 0)">
    <g id="Group_415" data-name="Group 415" transform="translate(0.707 0)">
      <g id="Group_414" data-name="Group 414" transform="translate(0 0)">
        <path id="Path_1006" data-name="Path 1006" d="M94.679,1.609a1.5,1.5,0,0,0-1.3-1.3,40.935,40.935,0,0,0-33.97,11.68L49.42,21.972,35,23.831a1.5,1.5,0,0,0-.868.427l-13.9,13.9a1.5,1.5,0,0,0,.787,2.533l10.509,1.946L33.6,44.7l-4.4,2.381a1.5,1.5,0,0,0-.346,2.377l16.67,16.67a1.5,1.5,0,0,0,2.377-.346l2.381-4.4,2.065,2.065L54.3,73.96a1.5,1.5,0,0,0,2.533.787l13.9-13.9a1.5,1.5,0,0,0,.427-.868l1.859-14.415L83,35.578a41.166,41.166,0,0,0,9.765-15.635A41.168,41.168,0,0,0,94.679,1.609ZM31.762,39.63l-7.39-1.369L35.895,26.738l10.056-1.3ZM46.226,62.589,32.4,48.76l3.413-1.848L48.074,59.176Zm22.021-3.5L56.724,70.613l-1.369-7.39L69.544,49.035ZM80.88,33.46,53.738,60.6,34.383,41.247,61.525,14.1A38.152,38.152,0,0,1,75.568,5.216a17.931,17.931,0,0,0,14.2,14.2A38.161,38.161,0,0,1,80.88,33.46Zm9.791-16.922A14.948,14.948,0,0,1,78.447,4.314a38.234,38.234,0,0,1,13.384-1.16A38.229,38.229,0,0,1,90.671,16.538Z" transform="translate(-15.985 0)" fill="#ef4a23"/>
        <path id="Path_1007" data-name="Path 1007" d="M210.678,99.8a9.091,9.091,0,0,0,12.856,12.856h0A9.091,9.091,0,0,0,210.678,99.8Zm10.737,10.737a6.091,6.091,0,1,1,0-8.618A6.1,6.1,0,0,1,221.415,110.534Z" transform="translate(-166.6 -77.731)" fill="#ef4a23"/>
        <path id="Path_1008" data-name="Path 1008" d="M36.628,297.407a1.5,1.5,0,0,0-2.119,0L21.652,310.263a1.5,1.5,0,0,0,2.119,2.119l12.856-12.856A1.5,1.5,0,0,0,36.628,297.407Z" transform="translate(-17.116 -237.636)" fill="#ef4a23"/>
        <path id="Path_1009" data-name="Path 1009" d="M83.306,317.913l-5.792,5.792a1.5,1.5,0,0,0,2.119,2.119l5.792-5.792a1.5,1.5,0,0,0-2.119-2.119Z" transform="translate(-61.817 -254.045)" fill="#ef4a23"/>
        <path id="Path_1010" data-name="Path 1010" d="M63.128,361.919a1.5,1.5,0,1,0,1.383.925A1.512,1.512,0,0,0,63.128,361.919Z" transform="translate(-49.459 -289.61)" fill="#ef4a23"/>
        <path id="Path_1011" data-name="Path 1011" d="M76,366.445c.038.09-.036-.09,0,0Z" transform="translate(-60.951 -293.211)" fill="#ef4a23"/>
        <path id="Path_1012" data-name="Path 1012" d="M42.957,378.268l-.8.8a1.5,1.5,0,0,0,2.119,2.119l.8-.8a1.5,1.5,0,0,0-2.119-2.119Z" transform="translate(-33.526 -302.341)" fill="#ef4a23"/>
        <path id="Path_1013" data-name="Path 1013" d="M9.058,312.256a1.5,1.5,0,0,0-2.119,0l-5.792,5.792a1.5,1.5,0,0,0,2.119,2.119l5.792-5.792A1.5,1.5,0,0,0,9.058,312.256Z" transform="translate(-0.707 -249.518)" fill="#ef4a23"/>
        <path id="Path_1014" data-name="Path 1014" d="M47.036,299.33a1.5,1.5,0,1,0-1.613-.626c-.012-.018-.021-.031,0,.006s.017.024,0,.006A1.515,1.515,0,0,0,47.036,299.33Z" transform="translate(-36.294 -237.166)" fill="#ef4a23"/>
        <path id="Path_1015" data-name="Path 1015" d="M63.621,279.818l.8-.8A1.5,1.5,0,0,0,62.3,276.9l-.8.8a1.5,1.5,0,0,0,2.119,2.119Z" transform="translate(-49.005 -221.226)" fill="#ef4a23"/>
      </g>
    </g>
  </g>
</svg>
