<svg xmlns="http://www.w3.org/2000/svg" width="429.523" height="545.51" viewBox="0 0 429.523 545.51">
  <g id="Group_419" data-name="Group 419" transform="translate(49 -2573)">
    <g id="Group_25" data-name="Group 25" transform="translate(-80.583 2520.858)">
      <g id="Group_23" data-name="Group 23" transform="translate(31.583 263.815)">
        <path id="Path_73" data-name="Path 73" d="M76.87,72.879,50.714,108.11l.18.09L77.005,72.958Z" transform="translate(164.419 -51.356)" fill="#ef4a23"/>
        <path id="Path_74" data-name="Path 74" d="M291.236,104.937c-8.31,14.979-15.721,28.372-21.343,38.526a121.879,121.879,0,0,1,41.686,92.166c0,66.842-52.9,121.032-118.154,121.032S75.259,302.471,75.259,235.629s52.9-121.021,118.165-121.021c3.092,0,6.129.236,9.165.472l39.347-36.468a157.188,157.188,0,0,0-48.512-7.647c-89.388,0-161.841,74.736-161.841,166.924S104.036,404.8,193.424,404.8s161.83-74.736,161.83-166.913C355.255,183.62,330.133,135.423,291.236,104.937Z" transform="translate(-31.583 -70.965)" fill="#ef4a23"/>
      </g>
      <path id="Path_75" data-name="Path 75" d="M103.613,132.4l.011-.011c1.81,1.338,20.747,19.87,23.716,39.28l10.93-1.451s-6.331-45.959,8.929-64.165S175.6,66.7,171.455,52.3c-14.844-1.957-33.814,14.18-49.546,31.981s-62.13,18.375-62.13,18.375l.2,11.02c19.623.045,41.877,16.969,43.474,18.566" transform="translate(288.875 0)" fill="#ef4a23"/>
      <g id="Group_24" data-name="Group 24" transform="translate(119.408 148.832)">
        <path id="Path_76" data-name="Path 76" d="M39.528,289.963c2.845,13.236,14.225,24.38,9.277,38.324C41.5,348.91,44.78,370.423,53.9,375.269c8.3,4.419,8.94-6.2,20.646-18.1l79-106.594-.2-.1L294.211,60.74,97.756,242.845l-.034.1A95.2,95.2,0,0,0,54.338,262.4C46.725,271.734,38.213,283.834,39.528,289.963Z" transform="translate(-39.393 -60.74)" fill="#ef4a23"/>
        <path id="Path_77" data-name="Path 77" d="M115.3,79.17c-1.113,2.114-72.577,137.585-69.608,140.847,6.95,7.613,7.433-1.968,25.9-13.944,12.482-8.1,26.145.169,39.808-.259,10.717-.349,29.789-25.5,31.194-27.371a100.775,100.775,0,0,0,3.7-26.876A99.4,99.4,0,0,0,115.3,79.17Z" transform="translate(24.23 128.08)" fill="#ef4a23"/>
      </g>
      <path id="Path_78" data-name="Path 78" d="M55.994,70.265" transform="translate(250.096 185.678)" fill="#ef4a23"/>
    </g>
  </g>
</svg>
